<svg width="114" height="47" viewBox="0 0 114 47" fill="none" xmlns="http://www.w3.org/2000/svg">
<path d="M34.6323 2.51331C32.3511 2.51331 30.5558 3.32987 29.2465 4.96299C27.9373 6.59612 27.2826 8.83371 27.2826 11.6758C27.2826 14.4966 27.8877 16.7342 29.0977 18.3885C30.3277 20.0217 32.1626 20.8382 34.6026 20.8382C35.5349 20.8382 36.4177 20.7534 37.2509 20.5837C38.084 20.414 38.8974 20.2019 39.6909 19.9474V22.4289C38.8974 22.7471 38.0741 22.9804 37.2211 23.1288C36.3879 23.2773 35.3862 23.3515 34.2158 23.3515C32.0535 23.3515 30.2483 22.8743 28.8002 21.9199C27.3521 20.9655 26.261 19.6081 25.527 17.8477C24.8129 16.0873 24.4558 14.0194 24.4558 11.6439C24.4558 9.35334 24.8426 7.33844 25.6163 5.59928C26.4098 3.8389 27.5703 2.47089 29.0977 1.49526C30.6252 0.49842 32.48 0 34.6621 0C36.9037 0 38.8577 0.445397 40.524 1.33619L39.4527 3.75406C38.7982 3.43592 38.0642 3.14959 37.2509 2.89508C36.4574 2.64057 35.5845 2.51331 34.6323 2.51331ZM56.379 16.9569C56.379 18.9718 55.6946 20.5413 54.3258 21.6654C52.957 22.7895 51.1122 23.3515 48.7912 23.3515C47.601 23.3515 46.5 23.2561 45.4883 23.0652C44.4766 22.8743 43.6335 22.6092 42.9591 22.2698V19.5338C43.6732 19.8732 44.556 20.1807 45.6073 20.4564C46.6785 20.7322 47.7795 20.87 48.9102 20.87C50.4972 20.87 51.6875 20.5413 52.481 19.8838C53.2943 19.2263 53.7009 18.3355 53.7009 17.2114C53.7009 16.4691 53.5522 15.8434 53.2546 15.3344C52.9571 14.8254 52.4413 14.3587 51.7073 13.9346C50.9932 13.4892 49.9914 13.0226 48.702 12.5347C46.8968 11.8348 45.528 10.9759 44.5956 9.9578C43.6831 8.93975 43.2269 7.55054 43.2269 5.79016C43.2269 4.58123 43.5145 3.55257 44.0898 2.7042C44.6651 1.83461 45.4586 1.16652 46.4703 0.699909C47.5018 0.233303 48.6821 0 50.0112 0C51.1816 0 52.2528 0.116652 53.2249 0.349954C54.1969 0.583258 55.0796 0.890795 55.8731 1.27256L55.04 3.72225C54.306 3.3829 53.5026 3.09657 52.6297 2.86327C51.7767 2.62996 50.8841 2.51331 49.9517 2.51331C48.6226 2.51331 47.6208 2.82085 46.9463 3.43592C46.2719 4.02978 45.9346 4.82513 45.9346 5.82197C45.9346 6.58551 46.0834 7.22179 46.381 7.73082C46.6785 8.23984 47.1646 8.69584 47.839 9.09882C48.5135 9.5018 49.426 9.93659 50.5766 10.4032C51.8263 10.891 52.8777 11.4212 53.7307 11.9939C54.6035 12.5453 55.2582 13.2134 55.6946 13.9982C56.1509 14.7829 56.379 15.7692 56.379 16.9569ZM70.0319 23.0334L63.0393 3.11778H62.9202C62.9797 3.77527 63.0293 4.66606 63.069 5.79016C63.1087 6.89305 63.1285 8.04896 63.1285 9.25789V23.0334H60.6588V0.318141H64.6163L71.1626 18.9294H71.2817L77.947 0.318141H81.8748V23.0334H79.2265V9.06701C79.2265 7.96412 79.2463 6.87184 79.286 5.79016C79.3455 4.70848 79.3951 3.82829 79.4348 3.14959H79.3158L72.2338 23.0334H70.0319Z" fill="black"/>
<path d="M5.93631 43.1823H0V31.8247H5.93631V33.0813H1.33902V36.6286H5.66851V37.8694H1.33902V41.9257H5.93631V43.1823ZM9.97816 38.8238L7.2257 34.6561H8.71353L10.7667 37.8694L12.805 34.6561H14.2779L11.5255 38.8238L14.4267 43.1823H12.9389L10.7667 39.7782L8.56475 43.1823H7.0918L9.97816 38.8238ZM19.7574 34.4971C20.7393 34.4971 21.5278 34.8629 22.123 35.5947C22.728 36.3264 23.0305 37.4293 23.0305 38.9033C23.0305 40.3562 22.728 41.459 22.123 42.212C21.5278 42.9649 20.7343 43.3414 19.7425 43.3414C19.1275 43.3414 18.6167 43.2194 18.21 42.9755C17.8133 42.721 17.5009 42.4294 17.2727 42.1006H17.1835C17.2033 42.2809 17.2231 42.5089 17.243 42.7846C17.2628 43.0604 17.2727 43.299 17.2727 43.5004V47H15.9635V34.6561H17.0347L17.2132 35.8173H17.2727C17.5108 35.4462 17.8232 35.1333 18.21 34.8788C18.5969 34.6243 19.1126 34.4971 19.7574 34.4971ZM19.5193 35.6742C18.706 35.6742 18.1307 35.9181 17.7935 36.4059C17.4661 36.8937 17.2926 37.6361 17.2727 38.6329V38.9033C17.2727 39.9532 17.4314 40.7644 17.7488 41.3371C18.0761 41.8991 18.6762 42.1802 19.5491 42.1802C20.0351 42.1802 20.4318 42.037 20.7393 41.7507C21.0567 41.4644 21.2898 41.0773 21.4386 40.5895C21.5973 40.091 21.6766 39.5237 21.6766 38.8874C21.6766 37.9118 21.4981 37.1323 21.141 36.5491C20.7939 35.9658 20.2533 35.6742 19.5193 35.6742ZM26.4262 43.1823H25.1169V31.093H26.4262V43.1823ZM35.8858 38.9033C35.8858 40.3137 35.5485 41.406 34.8741 42.1802C34.2095 42.9543 33.3069 43.3414 32.1663 43.3414C31.4621 43.3414 30.8322 43.1717 30.2768 42.8324C29.7313 42.4824 29.2998 41.9787 28.9824 41.3212C28.665 40.6531 28.5063 39.8471 28.5063 38.9033C28.5063 37.4929 28.8386 36.4059 29.5031 35.6424C30.1677 34.8788 31.0703 34.4971 32.2109 34.4971C32.935 34.4971 33.5698 34.672 34.1153 35.022C34.6707 35.3613 35.1022 35.8598 35.4097 36.5173C35.7271 37.1641 35.8858 37.9595 35.8858 38.9033ZM29.8602 38.9033C29.8602 39.9108 30.0437 40.7114 30.4107 41.3053C30.7876 41.8885 31.3827 42.1802 32.196 42.1802C32.9994 42.1802 33.5896 41.8885 33.9665 41.3053C34.3434 40.7114 34.5319 39.9108 34.5319 38.9033C34.5319 37.8959 34.3434 37.1058 33.9665 36.5332C33.5896 35.9605 32.9945 35.6742 32.1812 35.6742C31.3678 35.6742 30.7777 35.9605 30.4107 36.5332C30.0437 37.1058 29.8602 37.8959 29.8602 38.9033ZM41.6802 34.4971C41.829 34.4971 41.9877 34.5077 42.1563 34.5289C42.3349 34.5395 42.4886 34.5607 42.6176 34.5925L42.4539 35.881C42.325 35.8492 42.1811 35.8227 42.0224 35.8014C41.8737 35.7802 41.7298 35.7696 41.591 35.7696C41.1843 35.7696 40.8024 35.8916 40.4454 36.1355C40.0883 36.3688 39.8007 36.7028 39.5825 37.1376C39.3742 37.5618 39.27 38.0602 39.27 38.6329V43.1823H37.9608V34.6561H39.032L39.1807 36.215H39.2403C39.4981 35.7484 39.8304 35.3454 40.2371 35.0061C40.6437 34.6667 41.1248 34.4971 41.6802 34.4971ZM46.8959 34.4971C47.5803 34.4971 48.1655 34.6561 48.6515 34.9743C49.1474 35.2924 49.5243 35.7431 49.7822 36.3264C50.05 36.899 50.1839 37.5724 50.1839 38.3466V39.1896H44.7237C44.7435 40.1547 44.9717 40.8917 45.4081 41.4007C45.8544 41.8991 46.4743 42.1484 47.2678 42.1484C47.7737 42.1484 48.22 42.1006 48.6068 42.0052C49.0036 41.8991 49.4102 41.7507 49.8268 41.5598V42.7846C49.4202 42.9755 49.0185 43.1134 48.6217 43.1982C48.225 43.2937 47.7538 43.3414 47.2083 43.3414C46.4545 43.3414 45.785 43.177 45.1998 42.8483C44.6245 42.5195 44.1732 42.0317 43.8459 41.3848C43.5285 40.7273 43.3698 39.9267 43.3698 38.9829C43.3698 38.0496 43.5136 37.249 43.8013 36.5809C44.0988 35.9128 44.5104 35.3985 45.0361 35.0379C45.5717 34.6773 46.1916 34.4971 46.8959 34.4971ZM46.881 35.6424C46.2561 35.6424 45.7602 35.8598 45.3932 36.2946C45.0361 36.7187 44.8229 37.3126 44.7534 38.0762H48.8151C48.8052 37.355 48.6465 36.7718 48.339 36.3264C48.0316 35.8704 47.5455 35.6424 46.881 35.6424ZM57.1002 42.1961C57.2985 42.1961 57.5019 42.1802 57.7102 42.1484C57.9185 42.1059 58.0871 42.0635 58.216 42.0211V43.0869C58.0772 43.1611 57.8788 43.2194 57.6209 43.2618C57.363 43.3149 57.1151 43.3414 56.877 43.3414C56.4604 43.3414 56.0736 43.2671 55.7165 43.1187C55.3694 42.9596 55.0867 42.6892 54.8685 42.3074C54.6503 41.9257 54.5412 41.3901 54.5412 40.7008V35.7378H53.4104V35.0697L54.556 34.513L55.0768 32.6996H55.8504V34.6561H58.1565V35.7378H55.8504V40.669C55.8504 41.1886 55.9645 41.5757 56.1926 41.8302C56.4307 42.0741 56.7332 42.1961 57.1002 42.1961ZM66.746 38.9033C66.746 40.3137 66.4087 41.406 65.7343 42.1802C65.0697 42.9543 64.1671 43.3414 63.0265 43.3414C62.3222 43.3414 61.6924 43.1717 61.137 42.8324C60.5914 42.4824 60.16 41.9787 59.8426 41.3212C59.5252 40.6531 59.3665 39.8471 59.3665 38.9033C59.3665 37.4929 59.6988 36.4059 60.3633 35.6424C61.0279 34.8788 61.9305 34.4971 63.0711 34.4971C63.7952 34.4971 64.43 34.672 64.9755 35.022C65.5309 35.3613 65.9624 35.8598 66.2699 36.5173C66.5873 37.1641 66.746 37.9595 66.746 38.9033ZM60.7204 38.9033C60.7204 39.9108 60.9039 40.7114 61.2709 41.3053C61.6478 41.8885 62.2429 42.1802 63.0562 42.1802C63.8596 42.1802 64.4498 41.8885 64.8267 41.3053C65.2036 40.7114 65.3921 39.9108 65.3921 38.9033C65.3921 37.8959 65.2036 37.1058 64.8267 36.5332C64.4498 35.9605 63.8547 35.6742 63.0413 35.6742C62.228 35.6742 61.6379 35.9605 61.2709 36.5332C60.9039 37.1058 60.7204 37.8959 60.7204 38.9033ZM71.6478 34.4971C72.1734 34.4971 72.6446 34.6031 73.0612 34.8152C73.4877 35.0273 73.8497 35.3507 74.1473 35.7855H74.2217L74.4002 34.6561H75.4416V43.3255C75.4416 44.545 75.149 45.4623 74.5638 46.0774C73.9886 46.6925 73.0909 47 71.8709 47C70.7005 47 69.7434 46.8197 68.9995 46.4592V45.1707C69.7831 45.6161 70.765 45.8388 71.9453 45.8388C72.6297 45.8388 73.1653 45.6214 73.5521 45.1866C73.9489 44.7624 74.1473 44.1792 74.1473 43.4368V43.1028C74.1473 42.9755 74.1522 42.7952 74.1621 42.5619C74.1721 42.318 74.182 42.1484 74.1919 42.0529H74.1324C73.5968 42.9119 72.7735 43.3414 71.6626 43.3414C70.6311 43.3414 69.8227 42.9543 69.2375 42.1802C68.6622 41.406 68.3746 40.3243 68.3746 38.9351C68.3746 37.5777 68.6622 36.5014 69.2375 35.706C69.8227 34.9 70.6261 34.4971 71.6478 34.4971ZM71.8263 35.6742C71.1617 35.6742 70.646 35.9605 70.279 36.5332C69.912 37.0952 69.7285 37.9012 69.7285 38.951C69.7285 40.0009 69.907 40.8069 70.2641 41.3689C70.6311 41.9204 71.1617 42.1961 71.8561 42.1961C72.6595 42.1961 73.2447 41.9681 73.6117 41.5121C73.9786 41.0455 74.1621 40.2978 74.1621 39.2692V38.9351C74.1621 37.7686 73.9737 36.9361 73.5968 36.4377C73.2199 35.9287 72.6297 35.6742 71.8263 35.6742ZM81.0541 34.4971C81.7385 34.4971 82.3237 34.6561 82.8097 34.9743C83.3056 35.2924 83.6826 35.7431 83.9404 36.3264C84.2082 36.899 84.3421 37.5724 84.3421 38.3466V39.1896H78.8819C78.9018 40.1547 79.1299 40.8917 79.5663 41.4007C80.0127 41.8991 80.6326 42.1484 81.4261 42.1484C81.9319 42.1484 82.3783 42.1006 82.7651 42.0052C83.1618 41.8991 83.5685 41.7507 83.9851 41.5598V42.7846C83.5784 42.9755 83.1767 43.1134 82.78 43.1982C82.3832 43.2937 81.9121 43.3414 81.3665 43.3414C80.6127 43.3414 79.9432 43.177 79.358 42.8483C78.7827 42.5195 78.3314 42.0317 78.0041 41.3848C77.6867 40.7273 77.528 39.9267 77.528 38.9829C77.528 38.0496 77.6719 37.249 77.9595 36.5809C78.2571 35.9128 78.6687 35.3985 79.1944 35.0379C79.73 34.6773 80.3499 34.4971 81.0541 34.4971ZM81.0392 35.6424C80.4144 35.6424 79.9184 35.8598 79.5514 36.2946C79.1944 36.7187 78.9811 37.3126 78.9117 38.0762H82.9734C82.9635 37.355 82.8048 36.7718 82.4973 36.3264C82.1898 35.8704 81.7038 35.6424 81.0392 35.6424ZM89.0355 42.1961C89.2338 42.1961 89.4372 42.1802 89.6455 42.1484C89.8537 42.1059 90.0224 42.0635 90.1513 42.0211V43.0869C90.0124 43.1611 89.8141 43.2194 89.5562 43.2618C89.2983 43.3149 89.0503 43.3414 88.8123 43.3414C88.3957 43.3414 88.0089 43.2671 87.6518 43.1187C87.3046 42.9596 87.022 42.6892 86.8038 42.3074C86.5855 41.9257 86.4764 41.3901 86.4764 40.7008V35.7378H85.3457V35.0697L86.4913 34.513L87.012 32.6996H87.7857V34.6561H90.0918V35.7378H87.7857V40.669C87.7857 41.1886 87.8998 41.5757 88.1279 41.8302C88.3659 42.0741 88.6685 42.1961 89.0355 42.1961ZM93.0575 34.6402C93.0575 35.0644 93.0327 35.4621 92.9831 35.8333H93.0723C93.3302 35.3985 93.6774 35.0697 94.1138 34.847C94.5601 34.6243 95.0412 34.513 95.557 34.513C96.529 34.513 97.258 34.7622 97.7443 35.2606C98.2303 35.7484 98.4733 36.5385 98.4733 37.6308V43.1823H97.1787V37.7262C97.1787 36.3582 96.5835 35.6742 95.3933 35.6742C94.5006 35.6742 93.8857 35.9446 93.5484 36.4854C93.2211 37.0157 93.0575 37.7792 93.0575 38.7761V43.1823H91.7482V31.093H93.0575V34.6402ZM104.025 34.4971C104.709 34.4971 105.294 34.6561 105.78 34.9743C106.276 35.2924 106.653 35.7431 106.911 36.3264C107.179 36.899 107.313 37.5724 107.313 38.3466V39.1896H101.853C101.872 40.1547 102.101 40.8917 102.537 41.4007C102.983 41.8991 103.603 42.1484 104.397 42.1484C104.903 42.1484 105.349 42.1006 105.736 42.0052C106.133 41.8991 106.539 41.7507 106.956 41.5598V42.7846C106.549 42.9755 106.147 43.1134 105.751 43.1982C105.354 43.2937 104.883 43.3414 104.337 43.3414C103.583 43.3414 102.914 43.177 102.329 42.8483C101.753 42.5195 101.302 42.0317 100.975 41.3848C100.657 40.7273 100.499 39.9267 100.499 38.9829C100.499 38.0496 100.643 37.249 100.93 36.5809C101.228 35.9128 101.639 35.3985 102.165 35.0379C102.701 34.6773 103.321 34.4971 104.025 34.4971ZM104.01 35.6424C103.385 35.6424 102.889 35.8598 102.522 36.2946C102.165 36.7187 101.952 37.3126 101.882 38.0762H105.944C105.934 37.355 105.775 36.7718 105.468 36.3264C105.161 35.8704 104.674 35.6424 104.01 35.6424ZM113.063 34.4971C113.211 34.4971 113.37 34.5077 113.539 34.5289C113.717 34.5395 113.871 34.5607 114 34.5925L113.836 35.881C113.707 35.8492 113.564 35.8227 113.405 35.8014C113.256 35.7802 113.112 35.7696 112.973 35.7696C112.567 35.7696 112.185 35.8916 111.828 36.1355C111.471 36.3688 111.183 36.7028 110.965 37.1376C110.757 37.5618 110.652 38.0602 110.652 38.6329V43.1823H109.343V34.6561H110.414L110.563 36.215H110.623C110.881 35.7484 111.213 35.3454 111.62 35.0061C112.026 34.6667 112.507 34.4971 113.063 34.4971Z" fill="black"/>
</svg>
